<svg width="217" height="36" viewBox="0 0 217 36" fill="none" xmlns="http://www.w3.org/2000/svg">
<g filter="url(#filter0_d_38_112)">
<g clip-path="url(#clip0_38_112)">
<path d="M33.0332 24.6826H27.6058L31.0005 3.38599H36.4277L33.0332 24.6826Z" fill="#00579F"/>
<path d="M52.7083 3.90656C51.6378 3.47565 49.9398 2.99988 47.8403 2.99988C42.4805 2.99988 38.7062 5.89969 38.683 10.0455C38.6385 13.1043 41.3853 14.8033 43.4397 15.8232C45.5395 16.8654 46.2533 17.5456 46.2533 18.4746C46.232 19.9013 44.5566 20.5589 42.9939 20.5589C40.827 20.5589 39.666 20.2199 37.9015 19.4261L37.1869 19.0858L36.4274 23.8665C37.7003 24.4549 40.0456 24.977 42.4805 24.9999C48.1754 24.9999 51.8829 22.1449 51.9268 17.7269C51.9485 15.3025 50.4981 13.4449 47.3711 11.927C45.4728 10.9525 44.3102 10.2955 44.3102 9.29846C44.3325 8.39208 45.2935 7.46372 47.4364 7.46372C49.2008 7.41825 50.4972 7.84855 51.4793 8.27916L51.9702 8.5053L52.7083 3.90656Z" fill="#00579F"/>
<path d="M59.922 17.1379C60.3689 15.9145 62.0889 11.1793 62.0889 11.1793C62.0663 11.2248 62.5349 9.93329 62.8029 9.14044L63.1822 10.9755C63.1822 10.9755 64.21 16.0732 64.4332 17.1379C63.585 17.1379 60.994 17.1379 59.922 17.1379ZM66.6215 3.38599H62.4233C61.1287 3.38599 60.1452 3.77082 59.5866 5.15297L51.5248 24.6823H57.2197C57.2197 24.6823 58.1572 22.0538 58.3588 21.4877C58.9835 21.4877 64.5235 21.4877 65.3272 21.4877C65.483 22.2353 65.9748 24.6823 65.9748 24.6823H71.0001L66.6215 3.38599Z" fill="#00579F"/>
<path d="M23.0726 3.38599L17.7573 17.9082L17.1764 14.9629C16.1938 11.5645 13.1119 7.87211 9.67261 6.03616L14.5412 24.66H20.2806L28.8117 3.38599H23.0726Z" fill="#00579F"/>
<path d="M12.8216 3.38599H4.08933L4 3.81629C10.8117 5.58358 15.323 9.84356 17.1765 14.9638L15.2782 5.17616C14.9656 3.81599 14.0052 3.43085 12.8216 3.38599Z" fill="#FAA61A"/>
</g>
<g clip-path="url(#clip1_38_112)">
<path d="M93.3436 27.9386V26.0804C93.3436 25.3696 92.9232 24.9041 92.2017 24.9041C91.8409 24.9041 91.4485 25.0268 91.1788 25.4309C90.9687 25.0918 90.6674 24.9041 90.2156 24.9041C89.9143 24.9041 89.6131 24.9979 89.3749 25.3371V24.9655H88.7444V27.9386H89.3749V26.2969C89.3749 25.7701 89.6446 25.5211 90.0649 25.5211C90.4853 25.5211 90.6954 25.799 90.6954 26.2969V27.9386H91.3259V26.2969C91.3259 25.7701 91.6272 25.5211 92.016 25.5211C92.4363 25.5211 92.6465 25.799 92.6465 26.2969V27.9386H93.3436ZM102.696 24.9655H101.673V24.067H101.043V24.9655H100.472V25.5536H101.043V26.9175C101.043 27.5995 101.312 28 102.034 28C102.304 28 102.605 27.9062 102.815 27.7835L102.633 27.2242C102.451 27.3469 102.241 27.3794 102.09 27.3794C101.789 27.3794 101.67 27.1917 101.67 26.885V25.5536H102.693V24.9655H102.696ZM108.048 24.9005C107.688 24.9005 107.446 25.0881 107.295 25.3335V24.9619H106.665V27.935H107.295V26.2608C107.295 25.7665 107.505 25.4851 107.898 25.4851C108.017 25.4851 108.167 25.5175 108.29 25.5464L108.472 24.9258C108.346 24.9005 108.167 24.9005 108.048 24.9005ZM99.9604 25.2108C99.6591 24.9943 99.2388 24.9005 98.7869 24.9005C98.0653 24.9005 97.5855 25.2722 97.5855 25.8603C97.5855 26.3546 97.9462 26.6361 98.5767 26.7263L98.878 26.7588C99.2073 26.8201 99.3894 26.9139 99.3894 27.0691C99.3894 27.2856 99.1477 27.4407 98.7274 27.4407C98.307 27.4407 97.9743 27.2856 97.7641 27.1304L97.4629 27.6247C97.7921 27.8737 98.244 27.9964 98.6958 27.9964C99.5365 27.9964 100.02 27.5923 100.02 27.0366C100.02 26.5098 99.6276 26.232 99.0286 26.1381L98.7274 26.1057C98.4577 26.0732 98.2475 26.0119 98.2475 25.8278C98.2475 25.6113 98.4577 25.4887 98.7904 25.4887C99.1512 25.4887 99.512 25.6438 99.6941 25.7376L99.9604 25.2108ZM116.735 24.9005C116.374 24.9005 116.133 25.0881 115.982 25.3335V24.9619H115.352V27.935H115.982V26.2608C115.982 25.7665 116.192 25.4851 116.585 25.4851C116.704 25.4851 116.854 25.5175 116.977 25.5464L117.159 24.933C117.037 24.9005 116.858 24.9005 116.735 24.9005ZM108.679 26.4521C108.679 27.3505 109.281 28 110.213 28C110.633 28 110.935 27.9062 111.236 27.6608L110.935 27.134C110.693 27.3216 110.455 27.4118 110.182 27.4118C109.67 27.4118 109.309 27.0402 109.309 26.4521C109.309 25.8928 109.67 25.5211 110.182 25.4923C110.451 25.4923 110.693 25.5861 110.935 25.7701L111.236 25.2433C110.935 24.9943 110.633 24.9041 110.213 24.9041C109.281 24.9005 108.679 25.5536 108.679 26.4521ZM114.511 26.4521V24.9655H113.88V25.3371C113.67 25.0593 113.369 24.9041 112.977 24.9041C112.164 24.9041 111.534 25.5536 111.534 26.4521C111.534 27.3505 112.164 28 112.977 28C113.397 28 113.698 27.8448 113.88 27.567V27.9386H114.511V26.4521ZM112.196 26.4521C112.196 25.9253 112.525 25.4923 113.068 25.4923C113.579 25.4923 113.94 25.8964 113.94 26.4521C113.94 26.9789 113.579 27.4118 113.068 27.4118C112.528 27.3794 112.196 26.9753 112.196 26.4521ZM104.651 24.9005C103.81 24.9005 103.207 25.5211 103.207 26.4485C103.207 27.3794 103.81 27.9964 104.682 27.9964C105.102 27.9964 105.523 27.8737 105.856 27.5923L105.554 27.1268C105.313 27.3144 105.011 27.4371 104.714 27.4371C104.321 27.4371 103.933 27.2495 103.841 26.7263H105.975C105.975 26.6325 105.975 26.5711 105.975 26.4773C106.003 25.5211 105.46 24.9005 104.651 24.9005ZM104.651 25.4598C105.043 25.4598 105.313 25.7088 105.372 26.1706H103.869C103.929 25.7701 104.199 25.4598 104.651 25.4598ZM120.315 26.4521V23.7892H119.685V25.3371C119.474 25.0593 119.173 24.9041 118.781 24.9041C117.968 24.9041 117.338 25.5536 117.338 26.4521C117.338 27.3505 117.968 28 118.781 28C119.201 28 119.502 27.8448 119.685 27.567V27.9386H120.315V26.4521ZM118 26.4521C118 25.9253 118.329 25.4923 118.872 25.4923C119.383 25.4923 119.744 25.8964 119.744 26.4521C119.744 26.9789 119.383 27.4118 118.872 27.4118C118.329 27.3794 118 26.9753 118 26.4521ZM96.8919 26.4521V24.9655H96.2614V25.3371C96.0512 25.0593 95.75 24.9041 95.3577 24.9041C94.545 24.9041 93.9145 25.5536 93.9145 26.4521C93.9145 27.3505 94.545 28 95.3577 28C95.778 28 96.0793 27.8448 96.2614 27.567V27.9386H96.8919V26.4521ZM94.5485 26.4521C94.5485 25.9253 94.8778 25.4923 95.4207 25.4923C95.9321 25.4923 96.2929 25.8964 96.2929 26.4521C96.2929 26.9789 95.9321 27.4118 95.4207 27.4118C94.8778 27.3794 94.5485 26.9753 94.5485 26.4521Z" fill="black"/>
<path d="M109.222 2.38501H99.7502V19.9139H109.222V2.38501Z" fill="#FF5A00"/>
<path d="M100.381 11.1495C100.381 7.58814 102.006 4.42732 104.5 2.38505C102.665 0.898454 100.349 0 97.8237 0C91.8409 0 87 4.9866 87 11.1495C87 17.3124 91.8409 22.299 97.8237 22.299C100.349 22.299 102.665 21.4005 104.5 19.9139C102.003 17.9005 100.381 14.7108 100.381 11.1495Z" fill="#EB001B"/>
<path d="M122 11.1495C122 17.3124 117.159 22.299 111.176 22.299C108.651 22.299 106.335 21.4005 104.5 19.9139C107.026 17.868 108.619 14.7108 108.619 11.1495C108.619 7.58814 106.994 4.42732 104.5 2.38505C106.332 0.898454 108.647 0 111.173 0C117.159 0 122 5.01907 122 11.1495Z" fill="#F79E1B"/>
</g>
<path fill-rule="evenodd" clip-rule="evenodd" d="M149.916 5.3863C150.505 5.38286 152.258 5.22854 153 7.67802C153.5 9.32802 154.296 12.0308 155.389 15.7863H155.835C157.007 11.827 157.812 9.12421 158.25 7.67802C159 5.20302 160.875 5.38635 161.625 5.38635L167.411 5.38636V22.9863H161.514V12.6144H161.118L157.831 22.9863H153.393L150.106 12.6067H149.71V22.9863H143.812V5.38636L149.916 5.3863ZM175.88 5.38636V15.766H176.351L180.35 7.2309C181.126 5.53239 182.781 5.38636 182.781 5.38636H188.488V22.9864H182.467V12.6067H181.997L178.076 21.1418C177.3 22.8326 175.567 22.9864 175.567 22.9864H169.86V5.38636H175.88ZM209.299 13.75C208.459 16.077 205.822 17.7436 202.902 17.7436H196.587V22.9864H190.862V13.75H209.299Z" fill="#0F754E"/>
<path fill-rule="evenodd" clip-rule="evenodd" d="M203.178 5.38647H190.562C190.862 9.30483 194.313 12.6592 197.886 12.6592H209.697C210.378 9.40258 208.032 5.38647 203.178 5.38647Z" fill="url(#paint0_linear_38_112)"/>
</g>
<defs>
<filter id="filter0_d_38_112" x="0" y="0" width="217" height="36" filterUnits="userSpaceOnUse" color-interpolation-filters="sRGB">
<feFlood flood-opacity="0" result="BackgroundImageFix"/>
<feColorMatrix in="SourceAlpha" type="matrix" values="0 0 0 0 0 0 0 0 0 0 0 0 0 0 0 0 0 0 127 0" result="hardAlpha"/>
<feOffset dy="4"/>
<feGaussianBlur stdDeviation="2"/>
<feComposite in2="hardAlpha" operator="out"/>
<feColorMatrix type="matrix" values="0 0 0 0 0 0 0 0 0 0 0 0 0 0 0 0 0 0 0.25 0"/>
<feBlend mode="normal" in2="BackgroundImageFix" result="effect1_dropShadow_38_112"/>
<feBlend mode="normal" in="SourceGraphic" in2="effect1_dropShadow_38_112" result="shape"/>
</filter>
<linearGradient id="paint0_linear_38_112" x1="209.813" y1="9.96133" x2="190.562" y2="9.96133" gradientUnits="userSpaceOnUse">
<stop stop-color="#1F5CD7"/>
<stop offset="1" stop-color="#02AEFF"/>
</linearGradient>
<clipPath id="clip0_38_112">
<rect width="67" height="22" fill="white" transform="translate(4 3)"/>
</clipPath>
<clipPath id="clip1_38_112">
<rect width="35" height="28" fill="white" transform="translate(87)"/>
</clipPath>
</defs>
</svg>
